<svg xmlns="http://www.w3.org/2000/svg" viewBox="0 0 1800 2400" font-family="-apple-system, BlinkMacSystemFont, 'Segoe UI', sans-serif" font-size="11">

  <!-- Background -->
  <rect width="1800" height="2400" fill="#ffffff"/>

  <!-- Title -->
  <text x="900" y="36" text-anchor="middle" font-size="18" font-weight="700" fill="#111">PIA Tracker — Database ERD</text>
  <text x="900" y="54" text-anchor="middle" font-size="11" fill="#888">All tables · grouped by domain · FK relationships shown as arrows</text>

  <!-- ══════════════════════════════════════════════════════ -->
  <!-- DOMAIN: Organisation & Reference  y=70 -->
  <!-- ══════════════════════════════════════════════════════ -->
  <text x="16" y="84" font-size="10" font-weight="700" fill="#6b7280" letter-spacing="1">ORGANISATION &amp; REFERENCE</text>
  <line x1="16" y1="88" x2="1784" y2="88" stroke="#e5e7eb" stroke-width="1"/>

  <!-- zones -->
  <rect x="20" y="96" width="200" height="90" rx="6" fill="#f0fdf4" stroke="#86efac" stroke-width="1.5"/>
  <rect x="20" y="96" width="200" height="22" rx="6" fill="#86efac"/>
  <rect x="20" y="107" width="200" height="11" fill="#86efac"/>
  <text x="120" y="111" text-anchor="middle" font-weight="700" font-size="12" fill="#14532d">zones</text>
  <text x="30" y="130" fill="#166534" font-weight="700">🔑 id (uuid)</text>
  <text x="30" y="145" fill="#333">code, name</text>
  <text x="30" y="160" fill="#333">headquarter_city</text>
  <text x="30" y="175" fill="#333">is_active</text>

  <!-- divisions -->
  <rect x="240" y="96" width="200" height="100" rx="6" fill="#f0fdf4" stroke="#86efac" stroke-width="1.5"/>
  <rect x="240" y="96" width="200" height="22" rx="6" fill="#86efac"/>
  <rect x="240" y="107" width="200" height="11" fill="#86efac"/>
  <text x="340" y="111" text-anchor="middle" font-weight="700" font-size="12" fill="#14532d">divisions</text>
  <text x="250" y="130" fill="#166534" font-weight="700">🔑 id (uuid)</text>
  <text x="250" y="145" fill="#1d4ed8">🔗 zone_id → zones</text>
  <text x="250" y="160" fill="#333">code, name</text>
  <text x="250" y="175" fill="#333">is_active</text>

  <!-- designations -->
  <rect x="460" y="96" width="220" height="115" rx="6" fill="#f0fdf4" stroke="#86efac" stroke-width="1.5"/>
  <rect x="460" y="96" width="220" height="22" rx="6" fill="#86efac"/>
  <rect x="460" y="107" width="220" height="11" fill="#86efac"/>
  <text x="570" y="111" text-anchor="middle" font-weight="700" font-size="12" fill="#14532d">designations</text>
  <text x="470" y="130" fill="#166534" font-weight="700">🔑 code (varchar)</text>
  <text x="470" y="145" fill="#333">name, short_label</text>
  <text x="470" y="160" fill="#333">category</text>
  <text x="470" y="175" fill="#333">is_approval_role</text>
  <text x="470" y="190" fill="#333">is_data_entry_role</text>

  <!-- ══════════════════════════════════════════════════════ -->
  <!-- DOMAIN: Users & Access Control  y=240 -->
  <!-- ══════════════════════════════════════════════════════ -->
  <text x="16" y="236" font-size="10" font-weight="700" fill="#6b7280" letter-spacing="1">USERS &amp; ACCESS CONTROL</text>
  <line x1="16" y1="240" x2="1784" y2="240" stroke="#e5e7eb" stroke-width="1"/>

  <!-- users -->
  <rect x="20" y="248" width="220" height="175" rx="6" fill="#eff6ff" stroke="#93c5fd" stroke-width="1.5"/>
  <rect x="20" y="248" width="220" height="22" rx="6" fill="#93c5fd"/>
  <rect x="20" y="259" width="220" height="11" fill="#93c5fd"/>
  <text x="130" y="263" text-anchor="middle" font-weight="700" font-size="12" fill="#1e3a8a">users</text>
  <text x="30" y="282" fill="#1e3a8a" font-weight="700">🔑 id (uuid)</text>
  <text x="30" y="297" fill="#6b21a8">🔒 employee_id (unique)</text>
  <text x="30" y="312" fill="#6b21a8">🔒 email (unique)</text>
  <text x="30" y="327" fill="#1d4ed8">🔗 designation_code</text>
  <text x="30" y="342" fill="#1d4ed8">🔗 primary_zone_id</text>
  <text x="30" y="357" fill="#1d4ed8">🔗 primary_division_id</text>
  <text x="30" y="372" fill="#333">name, is_active</text>
  <text x="30" y="387" fill="#333">is_system_user, version</text>
  <text x="30" y="402" fill="#333">last_login_at</text>

  <!-- roles -->
  <rect x="260" y="248" width="180" height="90" rx="6" fill="#eff6ff" stroke="#93c5fd" stroke-width="1.5"/>
  <rect x="260" y="248" width="180" height="22" rx="6" fill="#93c5fd"/>
  <rect x="260" y="259" width="180" height="11" fill="#93c5fd"/>
  <text x="350" y="263" text-anchor="middle" font-weight="700" font-size="12" fill="#1e3a8a">roles</text>
  <text x="270" y="282" fill="#1e3a8a" font-weight="700">🔑 code (varchar)</text>
  <text x="270" y="297" fill="#333">name, description</text>
  <text x="270" y="312" fill="#333">is_active</text>

  <!-- permissions -->
  <rect x="460" y="248" width="180" height="75" rx="6" fill="#eff6ff" stroke="#93c5fd" stroke-width="1.5"/>
  <rect x="460" y="248" width="180" height="22" rx="6" fill="#93c5fd"/>
  <rect x="460" y="259" width="180" height="11" fill="#93c5fd"/>
  <text x="550" y="263" text-anchor="middle" font-weight="700" font-size="12" fill="#1e3a8a">permissions</text>
  <text x="470" y="282" fill="#1e3a8a" font-weight="700">🔑 code (varchar)</text>
  <text x="470" y="297" fill="#333">name, description</text>

  <!-- designation_default_roles -->
  <rect x="660" y="248" width="230" height="75" rx="6" fill="#eff6ff" stroke="#93c5fd" stroke-width="1.5"/>
  <rect x="660" y="248" width="230" height="22" rx="6" fill="#93c5fd"/>
  <rect x="660" y="259" width="230" height="11" fill="#93c5fd"/>
  <text x="775" y="263" text-anchor="middle" font-weight="700" font-size="12" fill="#1e3a8a">designation_default_roles</text>
  <text x="670" y="282" fill="#1d4ed8">🔗🔑 designation_code → designations</text>
  <text x="670" y="297" fill="#1d4ed8">🔗🔑 role_code → roles</text>

  <!-- role_permissions -->
  <rect x="260" y="358" width="200" height="75" rx="6" fill="#eff6ff" stroke="#93c5fd" stroke-width="1.5"/>
  <rect x="260" y="358" width="200" height="22" rx="6" fill="#93c5fd"/>
  <rect x="260" y="369" width="200" height="11" fill="#93c5fd"/>
  <text x="360" y="373" text-anchor="middle" font-weight="700" font-size="12" fill="#1e3a8a">role_permissions</text>
  <text x="270" y="392" fill="#1d4ed8">🔗🔑 role_code → roles</text>
  <text x="270" y="407" fill="#1d4ed8">🔗🔑 permission_code → permissions</text>

  <!-- user_roles -->
  <rect x="910" y="248" width="220" height="90" rx="6" fill="#eff6ff" stroke="#93c5fd" stroke-width="1.5"/>
  <rect x="910" y="248" width="220" height="22" rx="6" fill="#93c5fd"/>
  <rect x="910" y="259" width="220" height="11" fill="#93c5fd"/>
  <text x="1020" y="263" text-anchor="middle" font-weight="700" font-size="12" fill="#1e3a8a">user_roles</text>
  <text x="920" y="282" fill="#1d4ed8">🔗 user_id → users</text>
  <text x="920" y="297" fill="#1d4ed8">🔗 role_code → roles</text>
  <text x="920" y="312" fill="#1d4ed8">🔗 granted_by_user_id → users</text>

  <!-- user_permissions -->
  <rect x="1150" y="248" width="230" height="105" rx="6" fill="#eff6ff" stroke="#93c5fd" stroke-width="1.5"/>
  <rect x="1150" y="248" width="230" height="22" rx="6" fill="#93c5fd"/>
  <rect x="1150" y="259" width="230" height="11" fill="#93c5fd"/>
  <text x="1265" y="263" text-anchor="middle" font-weight="700" font-size="12" fill="#1e3a8a">user_permissions</text>
  <text x="1160" y="282" fill="#1d4ed8">🔗 user_id → users</text>
  <text x="1160" y="297" fill="#1d4ed8">🔗 permission_code → permissions</text>
  <text x="1160" y="312" fill="#1d4ed8">🔗 granted_by_user_id → users</text>
  <text x="1160" y="327" fill="#333">expires_at</text>

  <!-- user_zone_assignments -->
  <rect x="1400" y="248" width="240" height="120" rx="6" fill="#eff6ff" stroke="#93c5fd" stroke-width="1.5"/>
  <rect x="1400" y="248" width="240" height="22" rx="6" fill="#93c5fd"/>
  <rect x="1400" y="259" width="240" height="11" fill="#93c5fd"/>
  <text x="1520" y="263" text-anchor="middle" font-weight="700" font-size="12" fill="#1e3a8a">user_zone_assignments</text>
  <text x="1410" y="282" fill="#1e3a8a" font-weight="700">🔑 id (uuid)</text>
  <text x="1410" y="297" fill="#1d4ed8">🔗 user_id → users</text>
  <text x="1410" y="312" fill="#1d4ed8">🔗 zone_id → zones</text>
  <text x="1410" y="327" fill="#1d4ed8">🔗 granted_by_user_id → users</text>
  <text x="1410" y="342" fill="#333">is_active, expires_at</text>

  <!-- ══════════════════════════════════════════════════════ -->
  <!-- DOMAIN: Projects  y=460 -->
  <!-- ══════════════════════════════════════════════════════ -->
  <text x="16" y="458" font-size="10" font-weight="700" fill="#6b7280" letter-spacing="1">PROJECTS</text>
  <line x1="16" y1="462" x2="1784" y2="462" stroke="#e5e7eb" stroke-width="1"/>

  <!-- projects -->
  <rect x="20" y="470" width="240" height="145" rx="6" fill="#fef9c3" stroke="#fde047" stroke-width="1.5"/>
  <rect x="20" y="470" width="240" height="22" rx="6" fill="#fde047"/>
  <rect x="20" y="481" width="240" height="11" fill="#fde047"/>
  <text x="140" y="485" text-anchor="middle" font-weight="700" font-size="12" fill="#713f12">projects</text>
  <text x="30" y="504" fill="#713f12" font-weight="700">🔑 id (uuid)</text>
  <text x="30" y="519" fill="#1d4ed8">🔗 zone_id → zones</text>
  <text x="30" y="534" fill="#1d4ed8">🔗 division_id → divisions</text>
  <text x="30" y="549" fill="#1d4ed8">🔗 created_by_user_id → users</text>
  <text x="30" y="564" fill="#333">name, km_from, km_to</text>
  <text x="30" y="579" fill="#333">status, target_completion_year</text>
  <text x="30" y="594" fill="#333">is_deleted, version</text>

  <!-- project_assignments -->
  <rect x="280" y="470" width="240" height="120" rx="6" fill="#fef9c3" stroke="#fde047" stroke-width="1.5"/>
  <rect x="280" y="470" width="240" height="22" rx="6" fill="#fde047"/>
  <rect x="280" y="481" width="240" height="11" fill="#fde047"/>
  <text x="400" y="485" text-anchor="middle" font-weight="700" font-size="12" fill="#713f12">project_assignments</text>
  <text x="290" y="504" fill="#713f12" font-weight="700">🔑 id (uuid)</text>
  <text x="290" y="519" fill="#1d4ed8">🔗 project_id → projects</text>
  <text x="290" y="534" fill="#1d4ed8">🔗 user_id → users</text>
  <text x="290" y="549" fill="#1d4ed8">🔗 assigned_by_user_id → users</text>
  <text x="290" y="564" fill="#333">role_in_project</text>

  <!-- ══════════════════════════════════════════════════════ -->
  <!-- DOMAIN: Activities & Records  y=650 -->
  <!-- ══════════════════════════════════════════════════════ -->
  <text x="16" y="648" font-size="10" font-weight="700" fill="#6b7280" letter-spacing="1">ACTIVITIES &amp; RECORDS</text>
  <line x1="16" y1="652" x2="1784" y2="652" stroke="#e5e7eb" stroke-width="1"/>

  <!-- activity_types -->
  <rect x="20" y="660" width="200" height="90" rx="6" fill="#fff7ed" stroke="#fdba74" stroke-width="1.5"/>
  <rect x="20" y="660" width="200" height="22" rx="6" fill="#fdba74"/>
  <rect x="20" y="671" width="200" height="11" fill="#fdba74"/>
  <text x="120" y="675" text-anchor="middle" font-weight="700" font-size="12" fill="#7c2d12">activity_types</text>
  <text x="30" y="694" fill="#7c2d12" font-weight="700">🔑 code (varchar)</text>
  <text x="30" y="709" fill="#333">name, category</text>
  <text x="30" y="724" fill="#333">display_order</text>

  <!-- project_activities -->
  <rect x="240" y="660" width="250" height="160" rx="6" fill="#fff7ed" stroke="#fdba74" stroke-width="1.5"/>
  <rect x="240" y="660" width="250" height="22" rx="6" fill="#fdba74"/>
  <rect x="240" y="671" width="250" height="11" fill="#fdba74"/>
  <text x="365" y="675" text-anchor="middle" font-weight="700" font-size="12" fill="#7c2d12">project_activities</text>
  <text x="250" y="694" fill="#7c2d12" font-weight="700">🔑 id (uuid)</text>
  <text x="250" y="709" fill="#1d4ed8">🔗 project_id → projects</text>
  <text x="250" y="724" fill="#1d4ed8">🔗 activity_type_code</text>
  <text x="250" y="739" fill="#1d4ed8">🔗 default_form_definition_id</text>
  <text x="250" y="754" fill="#1d4ed8">🔗 default_workflow_definition_id</text>
  <text x="250" y="769" fill="#1d4ed8">🔗 primary_dyce_user_id → users</text>
  <text x="250" y="784" fill="#333">name, status, version</text>
  <text x="250" y="799" fill="#333">is_deleted</text>

  <!-- activity_records -->
  <rect x="510" y="660" width="250" height="160" rx="6" fill="#fff7ed" stroke="#fdba74" stroke-width="1.5"/>
  <rect x="510" y="660" width="250" height="22" rx="6" fill="#fdba74"/>
  <rect x="510" y="671" width="250" height="11" fill="#fdba74"/>
  <text x="635" y="675" text-anchor="middle" font-weight="700" font-size="12" fill="#7c2d12">activity_records</text>
  <text x="520" y="694" fill="#7c2d12" font-weight="700">🔑 id (uuid)</text>
  <text x="520" y="709" fill="#1d4ed8">🔗 project_activity_id → project_activities</text>
  <text x="520" y="724" fill="#1d4ed8">🔗 form_definition_id</text>
  <text x="520" y="739" fill="#1d4ed8">🔗 workflow_definition_id</text>
  <text x="520" y="754" fill="#1d4ed8">🔗 created_by_user_id → users</text>
  <text x="520" y="769" fill="#333">name, data_json</text>
  <text x="520" y="784" fill="#333">status, version, is_deleted</text>

  <!-- Activity detail tables row -->
  <!-- land_acquisition_details -->
  <rect x="20" y="850" width="220" height="90" rx="6" fill="#fff7ed" stroke="#fdba74" stroke-width="1.5"/>
  <rect x="20" y="850" width="220" height="22" rx="6" fill="#fdba74"/>
  <rect x="20" y="861" width="220" height="11" fill="#fdba74"/>
  <text x="130" y="865" text-anchor="middle" font-weight="700" font-size="12" fill="#7c2d12">land_acquisition_details</text>
  <text x="30" y="884" fill="#7c2d12" font-weight="700">🔑 id (uuid)</text>
  <text x="30" y="899" fill="#1d4ed8">🔗 activity_id → project_activities</text>
  <text x="30" y="914" fill="#333">total_land_ha, private_ha</text>
  <text x="30" y="929" fill="#333">forest_ha, govt_ha</text>

  <!-- forest_clearance_details -->
  <rect x="260" y="850" width="220" height="90" rx="6" fill="#fff7ed" stroke="#fdba74" stroke-width="1.5"/>
  <rect x="260" y="850" width="220" height="22" rx="6" fill="#fdba74"/>
  <rect x="260" y="861" width="220" height="11" fill="#fdba74"/>
  <text x="370" y="865" text-anchor="middle" font-weight="700" font-size="12" fill="#7c2d12">forest_clearance_details</text>
  <text x="270" y="884" fill="#7c2d12" font-weight="700">🔑 id (uuid)</text>
  <text x="270" y="899" fill="#1d4ed8">🔗 activity_id → project_activities</text>
  <text x="270" y="914" fill="#333">forest_area_ha</text>
  <text x="270" y="929" fill="#333">stage_i_status, stage_ii_status</text>

  <!-- drawing_approval_details -->
  <rect x="500" y="850" width="220" height="90" rx="6" fill="#fff7ed" stroke="#fdba74" stroke-width="1.5"/>
  <rect x="500" y="850" width="220" height="22" rx="6" fill="#fdba74"/>
  <rect x="500" y="861" width="220" height="11" fill="#fdba74"/>
  <text x="610" y="865" text-anchor="middle" font-weight="700" font-size="12" fill="#7c2d12">drawing_approval_details</text>
  <text x="510" y="884" fill="#7c2d12" font-weight="700">🔑 id (uuid)</text>
  <text x="510" y="899" fill="#1d4ed8">🔗 activity_id → project_activities</text>
  <text x="510" y="914" fill="#333">drawing_type, status</text>

  <!-- drawing_approvers -->
  <rect x="740" y="850" width="240" height="105" rx="6" fill="#fff7ed" stroke="#fdba74" stroke-width="1.5"/>
  <rect x="740" y="850" width="240" height="22" rx="6" fill="#fdba74"/>
  <rect x="740" y="861" width="240" height="11" fill="#fdba74"/>
  <text x="860" y="865" text-anchor="middle" font-weight="700" font-size="12" fill="#7c2d12">drawing_approvers</text>
  <text x="750" y="884" fill="#7c2d12" font-weight="700">🔑 id (uuid)</text>
  <text x="750" y="899" fill="#1d4ed8">🔗 activity_record_id → activity_records</text>
  <text x="750" y="914" fill="#1d4ed8">🔗 approval_designation_code</text>
  <text x="750" y="929" fill="#333">approver_name, status</text>
  <text x="750" y="944" fill="#333">approved_at</text>

  <!-- tender_packaging_details -->
  <rect x="1000" y="850" width="210" height="90" rx="6" fill="#fff7ed" stroke="#fdba74" stroke-width="1.5"/>
  <rect x="1000" y="850" width="210" height="22" rx="6" fill="#fdba74"/>
  <rect x="1000" y="861" width="210" height="11" fill="#fdba74"/>
  <text x="1105" y="865" text-anchor="middle" font-weight="700" font-size="12" fill="#7c2d12">tender_packaging_details</text>
  <text x="1010" y="884" fill="#7c2d12" font-weight="700">🔑 id (uuid)</text>
  <text x="1010" y="899" fill="#1d4ed8">🔗 activity_id → project_activities</text>
  <text x="1010" y="914" fill="#333">tender_value, status</text>

  <!-- utility_shifting_details -->
  <rect x="1230" y="850" width="210" height="90" rx="6" fill="#fff7ed" stroke="#fdba74" stroke-width="1.5"/>
  <rect x="1230" y="850" width="210" height="22" rx="6" fill="#fdba74"/>
  <rect x="1230" y="861" width="210" height="11" fill="#fdba74"/>
  <text x="1335" y="865" text-anchor="middle" font-weight="700" font-size="12" fill="#7c2d12">utility_shifting_details</text>
  <text x="1240" y="884" fill="#7c2d12" font-weight="700">🔑 id (uuid)</text>
  <text x="1240" y="899" fill="#1d4ed8">🔗 activity_id → project_activities</text>
  <text x="1240" y="914" fill="#333">utility_type, status</text>

  <!-- temporary_office_space_details -->
  <rect x="1460" y="850" width="230" height="90" rx="6" fill="#fff7ed" stroke="#fdba74" stroke-width="1.5"/>
  <rect x="1460" y="850" width="230" height="22" rx="6" fill="#fdba74"/>
  <rect x="1460" y="861" width="230" height="11" fill="#fdba74"/>
  <text x="1575" y="865" text-anchor="middle" font-weight="700" font-size="12" fill="#7c2d12">temporary_office_space_details</text>
  <text x="1470" y="884" fill="#7c2d12" font-weight="700">🔑 id (uuid)</text>
  <text x="1470" y="899" fill="#1d4ed8">🔗 activity_id → project_activities</text>
  <text x="1470" y="914" fill="#333">area_sqm, status</text>

  <!-- ══════════════════════════════════════════════════════ -->
  <!-- DOMAIN: Forms & Attachments  y=980 -->
  <!-- ══════════════════════════════════════════════════════ -->
  <text x="16" y="978" font-size="10" font-weight="700" fill="#6b7280" letter-spacing="1">FORMS &amp; ATTACHMENTS</text>
  <line x1="16" y1="982" x2="1784" y2="982" stroke="#e5e7eb" stroke-width="1"/>

  <!-- form_definitions -->
  <rect x="20" y="990" width="260" height="145" rx="6" fill="#f0fdfa" stroke="#5eead4" stroke-width="1.5"/>
  <rect x="20" y="990" width="260" height="22" rx="6" fill="#5eead4"/>
  <rect x="20" y="1001" width="260" height="11" fill="#5eead4"/>
  <text x="150" y="1005" text-anchor="middle" font-weight="700" font-size="12" fill="#134e4a">form_definitions</text>
  <text x="30" y="1024" fill="#134e4a" font-weight="700">🔑 id (uuid)</text>
  <text x="30" y="1039" fill="#1d4ed8">🔗 activity_type_code</text>
  <text x="30" y="1054" fill="#1d4ed8">🔗 workflow_definition_id</text>
  <text x="30" y="1069" fill="#1d4ed8">🔗 created_by_user_id → users</text>
  <text x="30" y="1084" fill="#333">version, is_active</text>
  <text x="30" y="1099" fill="#333">schema_json (RJSF)</text>
  <text x="30" y="1114" fill="#333">ui_schema_json, section_codes</text>

  <!-- attachments -->
  <rect x="300" y="990" width="260" height="145" rx="6" fill="#fff1f2" stroke="#fca5a5" stroke-width="1.5"/>
  <rect x="300" y="990" width="260" height="22" rx="6" fill="#fca5a5"/>
  <rect x="300" y="1001" width="260" height="11" fill="#fca5a5"/>
  <text x="430" y="1005" text-anchor="middle" font-weight="700" font-size="12" fill="#7f1d1d">attachments</text>
  <text x="310" y="1024" fill="#7f1d1d" font-weight="700">🔑 id (uuid)</text>
  <text x="310" y="1039" fill="#1d4ed8">🔗 uploaded_by_user_id → users</text>
  <text x="310" y="1054" fill="#1d4ed8">🔗 deleted_by_user_id → users</text>
  <text x="310" y="1069" fill="#333">entity_type (scoped string)</text>
  <text x="310" y="1084" fill="#333">entity_id (uuid)</text>
  <text x="310" y="1099" fill="#333">original_filename, file_size_bytes</text>
  <text x="310" y="1114" fill="#333">minio_object_key, scan_status</text>

  <!-- ══════════════════════════════════════════════════════ -->
  <!-- DOMAIN: Workflow Engine  y=1175 -->
  <!-- ══════════════════════════════════════════════════════ -->
  <text x="16" y="1173" font-size="10" font-weight="700" fill="#6b7280" letter-spacing="1">WORKFLOW ENGINE</text>
  <line x1="16" y1="1177" x2="1784" y2="1177" stroke="#e5e7eb" stroke-width="1"/>

  <!-- workflow_definitions -->
  <rect x="20" y="1185" width="220" height="90" rx="6" fill="#fdf4ff" stroke="#d8b4fe" stroke-width="1.5"/>
  <rect x="20" y="1185" width="220" height="22" rx="6" fill="#d8b4fe"/>
  <rect x="20" y="1196" width="220" height="11" fill="#d8b4fe"/>
  <text x="130" y="1200" text-anchor="middle" font-weight="700" font-size="12" fill="#4a1d96">workflow_definitions</text>
  <text x="30" y="1219" fill="#4a1d96" font-weight="700">🔑 id (uuid)</text>
  <text x="30" y="1234" fill="#333">code, name</text>
  <text x="30" y="1249" fill="#333">is_active</text>

  <!-- workflow_states -->
  <rect x="260" y="1185" width="240" height="105" rx="6" fill="#fdf4ff" stroke="#d8b4fe" stroke-width="1.5"/>
  <rect x="260" y="1185" width="240" height="22" rx="6" fill="#d8b4fe"/>
  <rect x="260" y="1196" width="240" height="11" fill="#d8b4fe"/>
  <text x="380" y="1200" text-anchor="middle" font-weight="700" font-size="12" fill="#4a1d96">workflow_states</text>
  <text x="270" y="1219" fill="#4a1d96" font-weight="700">🔑 id (uuid)</text>
  <text x="270" y="1234" fill="#1d4ed8">🔗 workflow_definition_id</text>
  <text x="270" y="1249" fill="#1d4ed8">🔗 role_required_code → roles</text>
  <text x="270" y="1264" fill="#333">code, name, is_terminal</text>

  <!-- workflow_transitions -->
  <rect x="520" y="1185" width="260" height="120" rx="6" fill="#fdf4ff" stroke="#d8b4fe" stroke-width="1.5"/>
  <rect x="520" y="1185" width="260" height="22" rx="6" fill="#d8b4fe"/>
  <rect x="520" y="1196" width="260" height="11" fill="#d8b4fe"/>
  <text x="650" y="1200" text-anchor="middle" font-weight="700" font-size="12" fill="#4a1d96">workflow_transitions</text>
  <text x="530" y="1219" fill="#4a1d96" font-weight="700">🔑 id (uuid)</text>
  <text x="530" y="1234" fill="#1d4ed8">🔗 workflow_definition_id</text>
  <text x="530" y="1249" fill="#1d4ed8">🔗 from_state_id → workflow_states</text>
  <text x="530" y="1264" fill="#1d4ed8">🔗 to_state_id → workflow_states</text>
  <text x="530" y="1279" fill="#1d4ed8">🔗 role_required_code → roles</text>
  <text x="530" y="1294" fill="#333">action_code, label</text>

  <!-- workflow_instances -->
  <rect x="800" y="1185" width="250" height="120" rx="6" fill="#fdf4ff" stroke="#d8b4fe" stroke-width="1.5"/>
  <rect x="800" y="1185" width="250" height="22" rx="6" fill="#d8b4fe"/>
  <rect x="800" y="1196" width="250" height="11" fill="#d8b4fe"/>
  <text x="925" y="1200" text-anchor="middle" font-weight="700" font-size="12" fill="#4a1d96">workflow_instances</text>
  <text x="810" y="1219" fill="#4a1d96" font-weight="700">🔑 id (uuid)</text>
  <text x="810" y="1234" fill="#1d4ed8">🔗 workflow_definition_id</text>
  <text x="810" y="1249" fill="#1d4ed8">🔗 current_state_id → workflow_states</text>
  <text x="810" y="1264" fill="#1d4ed8">🔗 last_actor_user_id → users</text>
  <text x="810" y="1279" fill="#333">entity_type, entity_id</text>

  <!-- workflow_history -->
  <rect x="1070" y="1185" width="280" height="135" rx="6" fill="#fdf4ff" stroke="#d8b4fe" stroke-width="1.5"/>
  <rect x="1070" y="1185" width="280" height="22" rx="6" fill="#d8b4fe"/>
  <rect x="1070" y="1196" width="280" height="11" fill="#d8b4fe"/>
  <text x="1210" y="1200" text-anchor="middle" font-weight="700" font-size="12" fill="#4a1d96">workflow_history (+3 partitions)</text>
  <text x="1080" y="1219" fill="#4a1d96" font-weight="700">🔑 id (uuid)</text>
  <text x="1080" y="1234" fill="#1d4ed8">🔗 workflow_instance_id</text>
  <text x="1080" y="1249" fill="#1d4ed8">🔗 transition_id → workflow_transitions</text>
  <text x="1080" y="1264" fill="#1d4ed8">🔗 from_state_id / to_state_id</text>
  <text x="1080" y="1279" fill="#1d4ed8">🔗 actor_user_id → users</text>
  <text x="1080" y="1294" fill="#333">comment, acted_at</text>

  <!-- ══════════════════════════════════════════════════════ -->
  <!-- DOMAIN: Collaboration & Audit  y=1370 -->
  <!-- ══════════════════════════════════════════════════════ -->
  <text x="16" y="1368" font-size="10" font-weight="700" fill="#6b7280" letter-spacing="1">COLLABORATION &amp; AUDIT</text>
  <line x1="16" y1="1372" x2="1784" y2="1372" stroke="#e5e7eb" stroke-width="1"/>

  <!-- comments -->
  <rect x="20" y="1380" width="240" height="120" rx="6" fill="#f8fafc" stroke="#cbd5e1" stroke-width="1.5"/>
  <rect x="20" y="1380" width="240" height="22" rx="6" fill="#cbd5e1"/>
  <rect x="20" y="1391" width="240" height="11" fill="#cbd5e1"/>
  <text x="140" y="1395" text-anchor="middle" font-weight="700" font-size="12" fill="#1e293b">comments</text>
  <text x="30" y="1414" fill="#1e293b" font-weight="700">🔑 id (uuid)</text>
  <text x="30" y="1429" fill="#1d4ed8">🔗 author_user_id → users</text>
  <text x="30" y="1444" fill="#1d4ed8">🔗 parent_comment_id → comments</text>
  <text x="30" y="1459" fill="#333">entity_type, entity_id</text>
  <text x="30" y="1474" fill="#333">body, is_deleted</text>

  <!-- notifications -->
  <rect x="280" y="1380" width="240" height="105" rx="6" fill="#f8fafc" stroke="#cbd5e1" stroke-width="1.5"/>
  <rect x="280" y="1380" width="240" height="22" rx="6" fill="#cbd5e1"/>
  <rect x="280" y="1391" width="240" height="11" fill="#cbd5e1"/>
  <text x="400" y="1395" text-anchor="middle" font-weight="700" font-size="12" fill="#1e293b">notifications</text>
  <text x="290" y="1414" fill="#1e293b" font-weight="700">🔑 id (uuid)</text>
  <text x="290" y="1429" fill="#1d4ed8">🔗 recipient_user_id → users</text>
  <text x="290" y="1444" fill="#333">type, entity_type, entity_id</text>
  <text x="290" y="1459" fill="#333">is_read, created_at</text>

  <!-- audit_log -->
  <rect x="540" y="1380" width="260" height="105" rx="6" fill="#f8fafc" stroke="#cbd5e1" stroke-width="1.5"/>
  <rect x="540" y="1380" width="260" height="22" rx="6" fill="#cbd5e1"/>
  <rect x="540" y="1391" width="260" height="11" fill="#cbd5e1"/>
  <text x="670" y="1395" text-anchor="middle" font-weight="700" font-size="12" fill="#1e293b">audit_log (+3 partitions)</text>
  <text x="550" y="1414" fill="#1e293b" font-weight="700">🔑 id (uuid)</text>
  <text x="550" y="1429" fill="#333">actor_user_id, action</text>
  <text x="550" y="1444" fill="#333">entity_type, entity_id</text>
  <text x="550" y="1459" fill="#333">diff_json, created_at</text>

  <!-- export_jobs -->
  <rect x="820" y="1380" width="240" height="105" rx="6" fill="#f8fafc" stroke="#cbd5e1" stroke-width="1.5"/>
  <rect x="820" y="1380" width="240" height="22" rx="6" fill="#cbd5e1"/>
  <rect x="820" y="1391" width="240" height="11" fill="#cbd5e1"/>
  <text x="940" y="1395" text-anchor="middle" font-weight="700" font-size="12" fill="#1e293b">export_jobs</text>
  <text x="830" y="1414" fill="#1e293b" font-weight="700">🔑 id (uuid)</text>
  <text x="830" y="1429" fill="#1d4ed8">🔗 created_by_user_id → users</text>
  <text x="830" y="1444" fill="#333">status, params_json</text>
  <text x="830" y="1459" fill="#333">result_url, created_at</text>

  <!-- ══════════════════════════════════════════════════════ -->
  <!-- DOMAIN: Materialised Summaries  y=1540 -->
  <!-- ══════════════════════════════════════════════════════ -->
  <text x="16" y="1538" font-size="10" font-weight="700" fill="#6b7280" letter-spacing="1">MATERIALISED SUMMARIES (read-only, updated by triggers)</text>
  <line x1="16" y1="1542" x2="1784" y2="1542" stroke="#e5e7eb" stroke-width="1"/>

  <!-- project_summary -->
  <rect x="20" y="1550" width="210" height="75" rx="6" fill="#f8fafc" stroke="#e2e8f0" stroke-width="1.5"/>
  <rect x="20" y="1550" width="210" height="22" rx="6" fill="#e2e8f0"/>
  <rect x="20" y="1561" width="210" height="11" fill="#e2e8f0"/>
  <text x="125" y="1565" text-anchor="middle" font-weight="700" font-size="12" fill="#334155">project_summary</text>
  <text x="30" y="1584" fill="#1d4ed8">🔗 project_id → projects</text>
  <text x="30" y="1599" fill="#333">activity counts, status</text>

  <!-- project_activity_summary -->
  <rect x="250" y="1550" width="230" height="75" rx="6" fill="#f8fafc" stroke="#e2e8f0" stroke-width="1.5"/>
  <rect x="250" y="1550" width="230" height="22" rx="6" fill="#e2e8f0"/>
  <rect x="250" y="1561" width="230" height="11" fill="#e2e8f0"/>
  <text x="365" y="1565" text-anchor="middle" font-weight="700" font-size="12" fill="#334155">project_activity_summary</text>
  <text x="260" y="1584" fill="#1d4ed8">🔗 project_id → projects</text>
  <text x="260" y="1599" fill="#333">per-activity status counts</text>

  <!-- project_forest_stage_summary -->
  <rect x="500" y="1550" width="240" height="75" rx="6" fill="#f8fafc" stroke="#e2e8f0" stroke-width="1.5"/>
  <rect x="500" y="1550" width="240" height="22" rx="6" fill="#e2e8f0"/>
  <rect x="500" y="1561" width="240" height="11" fill="#e2e8f0"/>
  <text x="620" y="1565" text-anchor="middle" font-weight="700" font-size="12" fill="#334155">project_forest_stage_summary</text>
  <text x="510" y="1584" fill="#1d4ed8">🔗 project_id → projects</text>
  <text x="510" y="1599" fill="#333">stage_i / stage_ii status</text>

  <!-- project_utility_subtype_summary -->
  <rect x="760" y="1550" width="260" height="75" rx="6" fill="#f8fafc" stroke="#e2e8f0" stroke-width="1.5"/>
  <rect x="760" y="1550" width="260" height="22" rx="6" fill="#e2e8f0"/>
  <rect x="760" y="1561" width="260" height="11" fill="#e2e8f0"/>
  <text x="890" y="1565" text-anchor="middle" font-weight="700" font-size="12" fill="#334155">project_utility_subtype_summary</text>
  <text x="770" y="1584" fill="#1d4ed8">🔗 project_id → projects</text>
  <text x="770" y="1599" fill="#333">utility subtype counts</text>

  <!-- zone_summary -->
  <rect x="1040" y="1550" width="200" height="75" rx="6" fill="#f8fafc" stroke="#e2e8f0" stroke-width="1.5"/>
  <rect x="1040" y="1550" width="200" height="22" rx="6" fill="#e2e8f0"/>
  <rect x="1040" y="1561" width="200" height="11" fill="#e2e8f0"/>
  <text x="1140" y="1565" text-anchor="middle" font-weight="700" font-size="12" fill="#334155">zone_summary</text>
  <text x="1050" y="1584" fill="#1d4ed8">🔗 zone_id → zones</text>
  <text x="1050" y="1599" fill="#333">project/activity counts</text>

  <!-- pan_india_summary -->
  <rect x="1260" y="1550" width="210" height="75" rx="6" fill="#f8fafc" stroke="#e2e8f0" stroke-width="1.5"/>
  <rect x="1260" y="1550" width="210" height="22" rx="6" fill="#e2e8f0"/>
  <rect x="1260" y="1561" width="210" height="11" fill="#e2e8f0"/>
  <text x="1365" y="1565" text-anchor="middle" font-weight="700" font-size="12" fill="#334155">pan_india_summary</text>
  <text x="1270" y="1584" fill="#333">snapshot_at</text>
  <text x="1270" y="1599" fill="#333">total_projects, by_status</text>

  <!-- ══════════════════════════════════════════════════════ -->
  <!-- LEGEND -->
  <!-- ══════════════════════════════════════════════════════ -->
  <rect x="20" y="1660" width="700" height="50" rx="6" fill="#f8fafc" stroke="#e2e8f0" stroke-width="1"/>
  <text x="30" y="1678" font-weight="700" font-size="11" fill="#334155">Legend:</text>
  <text x="30" y="1698" font-size="11" fill="#1e3a8a">🔑 Primary Key</text>
  <text x="150" y="1698" font-size="11" fill="#1d4ed8">🔗 Foreign Key</text>
  <text x="270" y="1698" font-size="11" fill="#6b21a8">🔒 Unique</text>
  <text x="370" y="1698" font-size="11" fill="#555">Partitioned tables: parent shown only (_2026_05/06/07 omitted)</text>

</svg>
